PathFileType	4	(X/Y/Z)	C:\Users\Basilio\Documents\Thesis Gigler\squatting_fais\c3dfiles\073\SLS_front_pre5\markers_experimental.trc
DataRate	CameraRate	NumFrames	NumMarkers	Units	OrigDataRate	OrigDataStartFrame	OrigNumFrames
200.000000	200.000000	4	61	mm	200.000000	479	1279
Frame#	Time	FHD			LBHD			RBHD			C7			T10			CLAV			LSHO			LUUPA			LMUPA			LDUPA			LLEP			LMEP			LRAD			LUL			LRFIN			RSHO			RUPA1			RMUPA			RDUPA			RLEP			RMEP			RUL			RUFIN			LASI			RASI			USACR			LSACR			RSACR			LTHI1			LTHI2			LTHI3			LTHI4			LLFC			LMFC			LTIB1			LTIB2			LTIB3			LTIB4			LLMAL			LMMAL			LHEE			LMT1			LMT2			LMT5			RTHI			RTHI2			RTHI3			RTHI4			RLFC			RMFC			RTIB1			RTIB2			RTIB3			RTIB4			RLMAL			RMMAL			RHEE			RMT1			RMT2			RMT5			RRAD			
		X1	Y1	Z1	X2	Y2	Z2	X3	Y3	Z3	X4	Y4	Z4	X5	Y5	Z5	X6	Y6	Z6	X7	Y7	Z7	X8	Y8	Z8	X9	Y9	Z9	X10	Y10	Z10	X11	Y11	Z11	X12	Y12	Z12	X13	Y13	Z13	X14	Y14	Z14	X15	Y15	Z15	X16	Y16	Z16	X17	Y17	Z17	X18	Y18	Z18	X19	Y19	Z19	X20	Y20	Z20	X21	Y21	Z21	X22	Y22	Z22	X23	Y23	Z23	X24	Y24	Z24	X25	Y25	Z25	X26	Y26	Z26	X27	Y27	Z27	X28	Y28	Z28	X29	Y29	Z29	X30	Y30	Z30	X31	Y31	Z31	X32	Y32	Z32	X33	Y33	Z33	X34	Y34	Z34	X35	Y35	Z35	X36	Y36	Z36	X37	Y37	Z37	X38	Y38	Z38	X39	Y39	Z39	X40	Y40	Z40	X41	Y41	Z41	X42	Y42	Z42	X43	Y43	Z43	X44	Y44	Z44	X45	Y45	Z45	X46	Y46	Z46	X47	Y47	Z47	X48	Y48	Z48	X49	Y49	Z49	X50	Y50	Z50	X51	Y51	Z51	X52	Y52	Z52	X53	Y53	Z53	X54	Y54	Z54	X55	Y55	Z55	X56	Y56	Z56	X57	Y57	Z57	X58	Y58	Z58	X59	Y59	Z59	X60	Y60	Z60	X61	Y61	Z61	

480	2.395	-126.0605621337891	1375.466918945313	-776.1376953125002	-261.1876525878907	1350.56396484375	-802.8986816406252	-286.5786743164063	1332.860961914063	-669.7835693359376	-313.8219909667969	1259.330200195313	-734.7590332031251	-527.5881958007814	1009.376159667969	-744.4858398437501	-225.9524078369141	1134.132446289063	-735.5908203125001	-232.2295684814454	1204.181762695313	-870.6428833007815	-163.3849334716797	1125.894775390625	-969.298034667969	-121.3559799194336	1138.140869140625	-945.0767211914065	-106.422119140625	1089.81103515625	-979.3675537109377	-5.895531654357911	1051.67138671875	-981.5115356445315	-15.98649501800537	997.4018554687502	-937.287780761719	253.2432098388672	1054.603637695313	-865.4700317382815	258.3129882812501	1052.342407226563	-939.4829101562502	334.0498046875001	1061.967163085938	-856.3519287109377	-225.4724273681641	1186.98095703125	-598.3506469726564	-152.0780487060547	1081.445068359375	-497.1584472656251	-110.8059921264649	1097.777587890625	-515.6020507812501	-93.25881958007814	1045.639404296875	-492.6231384277345	-3.332417011260987	1017.933654785156	-494.7079162597657	-14.32159328460694	964.1524047851565	-556.8023681640626	259.1524353027344	1038.864990234375	-550.9929199218751	333.1639404296876	1050.317260742188	-636.1336059570314	-412.6640930175782	829.3104248046877	-878.904235839844	-399.9538574218751	814.1362304687502	-634.7501831054689	-581.9037475585939	865.729919433594	-746.7048339843751	-590.7482910156251	836.260192871094	-775.6544189453127	-590.7172241210939	831.1942138671877	-720.3039550781251	-214.1853790283204	660.3197021484376	-938.367370605469	-132.208740234375	657.7769775390626	-914.7825317382815	-120.4005661010742	693.8103027343751	-881.6638793945315	-98.88957977294925	610.1846923828126	-906.6648559570315	-47.8770866394043	581.6145629882814	-905.487243652344	-53.56918334960939	569.5228881835939	-765.9760742187501	138.8534240722657	507.596405029297	-850.0380859375002	139.8448791503907	440.5112915039064	-905.4185180664065	168.6006469726563	467.5750122070314	-882.8096923828127	231.7419128417969	421.9570617675782	-849.1474609375002	292.5624084472657	303.9298706054688	-877.505065917969	277.8314208984376	321.4996032714844	-792.8431396484377	282.5258483886719	235.0818786621094	-838.8291625976565	421.2666931152345	404.6334228515626	-784.2571411132815	423.5239257812501	408.7197570800782	-823.7000732421877	422.1597290039064	370.1369018554688	-879.2230224609377	-330.5353698730469	600.9575805664064	-583.1824951171876	-264.7169494628907	589.4241333007814	-585.4534301757814	-243.2089538574219	614.6786499023439	-587.0471191406251	-226.5249176025391	519.3644409179689	-609.4258422851564	-129.9238891601563	428.7694396972657	-640.6033325195314	-126.9918746948242	441.0022277832032	-770.1780395507815	-164.9017028808594	291.7246093750001	-750.5837402343751	-223.8934478759766	225.107650756836	-688.2206420898439	-207.9299316406251	217.7263793945313	-732.9625854492189	-250.7170867919922	195.2764434814454	-765.7236938476564	-353.2072448730469	94.60291290283205	-717.9275512695314	-342.4954223632813	130.55322265625	-802.028503417969	-431.8352050781251	85.05195617675783	-774.716491699219	-208.3827514648438	55.48748016357423	-788.6851196289065	-208.5237579345704	50.65041351318361	-747.5616455078126	-251.9805297851563	33.0796012878418	-699.9862670898439	245.4921875000001	1029.92333984375	-626.5266723632814	
481	2.4	-125.8077697753907	1374.867431640625	-776.188415527344	-260.8825683593751	1349.911376953125	-802.9289550781252	-286.3153381347657	1332.309692382813	-669.8835449218751	-313.5350952148438	1258.733154296875	-734.8526611328126	-527.5593872070314	1009.123779296875	-744.5939331054689	-225.6823272705079	1133.492797851563	-735.7125854492189	-231.7992248535157	1203.60595703125	-870.6319580078127	-163.0106506347657	1125.38818359375	-969.2817993164065	-121.0040359497071	1137.646484375	-945.060729980469	-105.9576797485352	1089.322387695313	-979.2581176757815	-5.451368808746339	1051.202758789063	-981.4851684570315	-15.57037448883057	996.9036254882815	-937.3260498046877	253.6416015625001	1054.318481445313	-865.377624511719	258.6649780273438	1052.050048828125	-939.4112548828127	335.0173950195313	1061.85302734375	-856.5098266601565	-225.1831970214844	1186.395751953125	-598.3949584960939	-151.8685913085938	1080.937622070313	-497.2998046875001	-110.5292739868164	1097.331420898438	-515.6508178710939	-92.97458648681642	1045.154296875	-492.6188964843751	-2.986946105957032	1017.526977539063	-494.6284179687501	-13.90191173553467	963.7447509765627	-556.8510131835939	259.4320068359376	1038.59130859375	-550.8296508789064	333.4680480957032	1050.099975585938	-636.0480957031251	-412.5831604003907	828.9119262695315	-879.0092773437502	-399.936981201172	813.8057250976565	-634.7558593750001	-581.8961791992189	865.3779296875002	-746.8388671875001	-590.7053833007814	835.9139404296877	-775.846618652344	-590.6929931640626	830.8733520507815	-720.4676513671876	-214.0993041992188	660.0905761718751	-938.3549804687502	-132.0532379150391	657.5949096679689	-914.7229614257815	-120.2563858032227	693.6492309570314	-881.5933837890627	-98.7525329589844	610.0004272460939	-906.6340332031252	-47.71255493164063	581.5051269531251	-905.4379882812502	-53.43716430664064	569.4039306640626	-765.9356689453126	138.8225250244141	507.3762512207032	-850.3630371093752	140.0758056640625	440.4017333984376	-905.2875976562502	168.8100891113282	467.4701232910157	-882.7185668945315	231.9151153564454	421.8464355468751	-849.0234375000002	292.6504211425782	303.8036804199219	-877.423767089844	278.0494995117188	321.3901977539063	-792.7907714843752	282.6902770996094	234.9701843261719	-838.799743652344	421.4789123535157	404.519012451172	-784.1458740234377	423.7745056152345	408.5792236328126	-823.562194824219	422.3751831054689	370.0635375976563	-879.1944580078127	-330.4365844726563	600.6892089843751	-583.2055053710939	-264.5535278320313	589.1980590820314	-585.4920654296876	-243.1004333496094	614.4483032226564	-587.0795898437501	-226.3509216308594	519.1591186523439	-609.4413452148439	-129.7460174560547	428.6140441894532	-640.6253051757814	-126.8587493896485	440.8325805664064	-770.1549072265627	-164.874740600586	291.5556030273438	-750.5828247070314	-223.8177947998047	225.0260467529297	-688.1994018554689	-207.8989562988282	217.6107330322266	-732.9960937500001	-250.6360015869141	195.1990356445313	-765.7367553710939	-353.2149353027344	94.59453582763673	-717.9721679687501	-342.5089721679688	130.5613555908203	-802.0449218750002	-431.8140563964845	85.04642486572267	-774.7287597656252	-208.3800354003907	55.49083709716798	-788.6810302734377	-208.4987182617188	50.68185806274415	-747.5079956054689	-251.9331970214844	33.0868148803711	-699.9577026367189	245.7252349853516	1029.68359375	-626.4371337890626	
482	2.405	-125.3580551147461	1374.323486328125	-776.1959228515627	-260.6722412109376	1349.3466796875	-803.003112792969	-286.1864624023438	1331.6474609375	-670.0241088867189	-313.2462463378907	1258.125854492188	-734.9075317382814	-527.5355834960939	1008.82373046875	-744.7836914062501	-225.3943176269532	1132.7666015625	-735.8302612304689	-231.4262390136719	1203.076538085938	-870.6372680664065	-162.732177734375	1124.92724609375	-969.3546142578127	-120.6514434814453	1137.133544921875	-945.0874633789065	-105.6983871459961	1089.06982421875	-979.6647949218752	-4.886682033538819	1050.703735351563	-981.509460449219	-14.99570655822754	996.377624511719	-937.4170532226565	254.0035095214844	1054.060180664063	-865.246032714844	259.0825805664063	1051.76123046875	-939.3308715820315	334.8986816406251	1061.583129882813	-856.078552246094	-224.9066772460938	1185.82861328125	-598.4816284179689	-151.5982666015625	1080.44384765625	-497.3658142089845	-110.290771484375	1096.865966796875	-515.7347412109376	-92.72735595703126	1044.657592773438	-492.5747680664064	-2.732660531997681	1017.134948730469	-494.5552062988282	-13.55823040008545	963.3427734375002	-556.8338623046876	259.7476501464844	1038.338256835938	-550.6780395507814	333.8430786132813	1049.855834960938	-635.9156494140626	-412.3102416992189	828.3777465820315	-879.0535278320315	-399.9964599609376	813.5302734375002	-634.7781982421876	-581.9513549804689	865.0025634765627	-747.0053100585939	-590.6392822265626	835.5659790039065	-776.0158691406252	-590.7353515625001	830.502868652344	-720.5887451171876	-213.9892883300782	659.8071289062501	-938.3436279296877	-131.9632110595703	657.3737182617189	-914.682312011719	-120.1791610717774	693.4648437500001	-881.6111450195315	-98.5219650268555	609.8103637695314	-906.540466308594	-47.55108261108399	581.3752441406251	-905.3909912109377	-53.27383041381837	569.3200683593751	-765.8586425781251	139.1654205322266	507.3710937500001	-849.9097900390627	140.3746490478516	440.333709716797	-905.2016601562502	169.0541687011719	467.3759765625001	-882.6385498046877	232.1267395019532	421.759246826172	-848.881042480469	292.8457946777344	303.7534790039063	-877.303894042969	278.2368164062501	321.2902526855469	-792.7305297851565	282.8919067382813	234.8804931640626	-838.6521606445315	421.7318115234376	404.4277954101564	-784.022399902344	424.0183410644532	408.4820556640626	-823.403259277344	422.6069946289064	369.9671936035157	-879.0789794921877	-330.3022155761719	600.4130249023439	-583.1828002929689	-264.4026184082032	589.0239257812501	-585.5632934570314	-242.9510955810547	614.2539672851564	-587.0753173828126	-226.1966400146485	518.9742431640626	-609.4639892578126	-129.5074920654297	428.4992675781251	-640.6447143554689	-126.6275253295899	440.7039489746095	-770.3477172851565	-164.7369995117188	291.4971313476563	-750.4889526367189	-223.6917572021485	224.9669342041016	-688.3823242187501	-207.8236999511719	217.5419311523438	-733.0341186523439	-250.6020507812501	195.1232147216797	-765.7628784179689	-353.1947631835938	94.61425781250001	-717.9605102539064	-342.4796447753907	130.5740814208985	-802.0213012695315	-431.8343811035157	85.05797576904298	-774.7066650390627	-208.3537292480469	55.4836769104004	-788.7010498046877	-208.4824676513672	50.66542434692384	-747.5064697265626	-251.9839630126954	33.06560897827149	-699.9860229492189	246.0514373779297	1029.2646484375	-626.3184814453126	
483	2.41	-124.9486389160157	1373.751098632813	-776.256286621094	-260.3231201171876	1348.673706054688	-803.059509277344	-285.8842468261719	1330.974731445313	-670.1006469726564	-312.9007263183594	1257.571655273438	-734.9543457031251	-527.4353027343751	1008.599426269531	-744.8475341796876	-225.0176391601563	1132.1796875	-735.8209838867189	-231.0912017822266	1202.5693359375	-870.6931152343752	-162.4361572265625	1124.444213867188	-969.3424072265627	-120.2695465087891	1136.689331054688	-945.0916137695315	-105.1441879272461	1088.813598632813	-979.8538818359377	-4.352001190185548	1050.2587890625	-981.485290527344	-14.53562259674073	995.9674072265627	-937.4661865234377	254.3435974121094	1053.78759765625	-865.1589355468752	259.5820007324219	1051.439697265625	-939.212097167969	335.4716186523438	1061.39794921875	-856.0833740234377	-224.5780487060547	1185.203491210938	-598.6305541992189	-151.3119201660157	1079.968505859375	-497.3142089843751	-110.0415649414063	1096.390747070313	-515.8137207031251	-92.4813690185547	1044.160888671875	-492.570526123047	-2.392960786819458	1016.696716308594	-494.6429443359376	-13.25570774078369	962.9310302734377	-556.8581542968751	260.0852050781251	1038.110229492188	-550.5723876953126	334.2072143554688	1049.59716796875	-635.8366699218751	-412.0994567871095	827.6751708984377	-879.1762695312502	-399.9713134765626	813.2020263671877	-634.7620849609376	-581.8517456054689	864.6278076171877	-747.1448974609376	-590.5718383789064	835.2167968750002	-776.1524658203127	-590.6949462890626	830.1324462890627	-720.7158203125001	-213.8380889892579	659.5587768554689	-938.3086547851565	-131.7979583740235	657.1521606445314	-914.6351318359377	-119.9961166381836	693.2648925781251	-881.5516357421877	-98.38570404052737	609.6418457031251	-906.5367431640627	-47.38629531860352	581.2360839843751	-905.3161621093752	-53.1572952270508	569.2282104492189	-765.7977905273439	139.3665313720703	507.2364196777345	-849.927917480469	140.6293334960938	440.1527404785157	-905.0566406250002	169.2484741210938	467.2880859375001	-882.4642333984377	232.3611602783204	421.6956176757814	-848.7857055664065	293.0570983886719	303.7129211425782	-877.1976318359377	278.4947814941407	321.1771545410157	-792.6600341796877	283.1163940429688	234.8456115722657	-838.5718994140627	422.029266357422	404.3359680175782	-783.8513793945315	424.2786560058595	408.3860473632814	-823.1274414062502	422.743621826172	369.8391113281251	-878.9149169921877	-330.1588745117188	600.1940307617189	-583.2115478515626	-264.2381591796876	588.8251342773439	-585.6757202148439	-242.8313140869141	614.0737915039064	-587.1569213867189	-226.0460662841797	518.8032836914064	-609.4989013671876	-129.30419921875	428.3842163085939	-640.7119140625001	-126.289421081543	440.5780334472657	-770.3325805664065	-164.6350250244141	291.3953552246094	-750.4379272460939	-223.6396179199219	224.8931274414063	-688.3397216796876	-207.7207183837891	217.478988647461	-733.0500488281251	-250.5550079345704	195.0966033935547	-765.8337402343751	-353.1857299804688	94.62466430664064	-717.9890136718751	-342.4332275390626	130.5726318359375	-802.0350341796877	-431.826873779297	85.10995483398439	-774.681091308594	-208.404037475586	55.47385787963869	-788.683044433594	-208.5214233398438	50.65307617187501	-747.5685424804689	-251.9896545410157	33.04584503173829	-699.9791259765626	246.3805694580079	1028.977294921875	-626.1300048828126	
